<svg width="1314" height="631" viewBox="0 0 1314 631" fill="none" xmlns="http://www.w3.org/2000/svg">
<rect width="1314" height="631" fill="white"/>
<path fill-rule="evenodd" clip-rule="evenodd" d="M495 126.02L656.214 61L818 123.143L656.214 189.889L495 126.02Z" fill="#714A28"/>
<path d="M495 126.02V344.097L656.214 409.117V189.889L495 126.02Z" fill="#653E1B"/>
<path d="M818 344.097V123.143L656.214 189.889V409.117L818 344.097Z" fill="#824E1F"/>
<path d="M818 351.334L655.984 417L495 355.739V343.159L655.849 404.369L818 338.649V351.334Z" fill="#3D2611"/>
<path d="M276.328 540.536C267.197 540.536 259.091 538.573 252.008 534.648C245.011 530.637 239.507 525.176 235.496 518.264C231.485 511.267 229.48 503.245 229.48 494.2C229.48 485.155 231.485 477.176 235.496 470.264C239.507 463.267 245.011 457.805 252.008 453.88C259.091 449.869 267.197 447.864 276.328 447.864C281.789 447.864 286.824 448.675 291.432 450.296C296.04 451.917 300.093 454.179 303.592 457.08C307.176 459.896 310.163 463.139 312.552 466.808L298.216 475.768C296.765 473.464 294.845 471.416 292.456 469.624C290.152 467.832 287.592 466.424 284.776 465.4C281.96 464.376 279.144 463.864 276.328 463.864C270.696 463.864 265.704 465.187 261.352 467.832C257 470.392 253.587 473.933 251.112 478.456C248.637 482.979 247.4 488.227 247.4 494.2C247.4 500.088 248.595 505.336 250.984 509.944C253.459 514.552 256.915 518.179 261.352 520.824C265.789 523.384 270.909 524.664 276.712 524.664C281.064 524.664 284.947 523.853 288.36 522.232C291.773 520.525 294.504 518.179 296.552 515.192C298.6 512.205 299.752 508.707 300.008 504.696H279.272V491H316.904V501.88C316.733 510.072 314.899 517.069 311.4 522.872C307.901 528.589 303.123 532.984 297.064 536.056C291.005 539.043 284.093 540.536 276.328 540.536ZM327.421 539V475H344.317V486.776C346.962 482.765 350.29 479.779 354.301 477.816C358.397 475.768 362.621 474.744 366.973 474.744V491.128C363.048 491.128 359.336 491.597 355.837 492.536C352.424 493.475 349.65 495.011 347.517 497.144C345.384 499.277 344.317 502.008 344.317 505.336V539H327.421ZM398.705 540.536C393.585 540.536 389.233 539.512 385.649 537.464C382.15 535.416 379.462 532.259 377.585 527.992C375.708 523.64 374.769 518.051 374.769 511.224V475H391.665V507.768C391.665 512.035 392.134 515.405 393.073 517.88C394.097 520.269 395.505 522.019 397.297 523.128C399.174 524.152 401.265 524.664 403.569 524.664C408.006 524.749 411.377 523.427 413.681 520.696C415.985 517.88 417.137 513.827 417.137 508.536V475H434.033V539H418.161L417.521 530.296C415.388 533.539 412.7 536.056 409.457 537.848C406.3 539.64 402.716 540.536 398.705 540.536ZM448.671 539V475H464.543L465.311 483.704C467.359 480.376 469.962 477.859 473.119 476.152C476.362 474.36 480.031 473.464 484.127 473.464C489.162 473.464 493.471 474.488 497.055 476.536C500.639 478.584 503.37 481.784 505.247 486.136C507.124 490.403 508.02 495.949 507.935 502.776V539H491.039V506.232C491.039 501.88 490.527 498.509 489.503 496.12C488.564 493.731 487.199 492.024 485.407 491C483.615 489.891 481.524 489.336 479.135 489.336C474.783 489.251 471.412 490.573 469.023 493.304C466.719 496.035 465.567 500.088 465.567 505.464V539H448.671ZM547.789 540.536C540.706 540.536 535.33 538.787 531.661 535.288C528.077 531.789 526.285 526.797 526.285 520.312V489.336H515.917V475H526.285V455.032H543.181V475H559.181V489.336H543.181V516.6C543.181 519.331 543.778 521.421 544.973 522.872C546.168 524.237 547.917 524.92 550.221 524.92C551.074 524.92 552.013 524.749 553.037 524.408C554.061 523.981 555.128 523.384 556.237 522.616L562.125 535.288C560.077 536.824 557.773 538.061 555.213 539C552.738 540.024 550.264 540.536 547.789 540.536ZM578.425 539V449.4H586.617V531.576H630.009V539H578.425ZM660.946 540.536C653.437 540.536 647.549 538.829 643.282 535.416C639.101 531.917 637.01 527.096 637.01 520.952C637.01 514.637 639.101 509.731 643.282 506.232C647.549 502.733 653.437 500.984 660.946 500.984H679.89C679.549 494.157 677.97 489.037 675.154 485.624C672.338 482.211 668.029 480.504 662.226 480.504C658.386 480.504 655.143 481.272 652.498 482.808C649.938 484.344 647.805 486.733 646.098 489.976L639.186 486.904C640.978 483.832 642.983 481.315 645.202 479.352C647.506 477.389 650.066 475.939 652.882 475C655.698 473.976 658.813 473.464 662.226 473.464C667.943 473.464 672.679 474.616 676.434 476.92C680.189 479.224 683.005 482.68 684.882 487.288C686.759 491.896 687.698 497.699 687.698 504.696V539H680.658L680.018 530.04C678.055 533.368 675.453 535.971 672.21 537.848C668.967 539.64 665.213 540.536 660.946 540.536ZM660.434 533.496C664.53 533.496 668.029 532.685 670.93 531.064C673.917 529.357 676.178 526.883 677.714 523.64C679.25 520.397 680.018 516.387 680.018 511.608V508.024H661.97C655.826 508.024 651.389 509.176 648.658 511.48C646.013 513.699 644.69 516.856 644.69 520.952C644.69 524.877 646.055 527.949 648.786 530.168C651.602 532.387 655.485 533.496 660.434 533.496ZM728.271 540.536C723.407 540.536 719.055 539.555 715.215 537.592C711.46 535.544 708.474 532.344 706.255 527.992C704.122 523.555 703.055 517.795 703.055 510.712V475H710.735V507.768C710.735 514.851 711.546 520.227 713.167 523.896C714.874 527.565 717.178 530.083 720.079 531.448C722.98 532.728 726.18 533.368 729.679 533.368C735.738 533.368 740.474 531.149 743.887 526.712C747.3 522.189 749.007 515.917 749.007 507.896V475H756.687V539H749.519L749.135 529.016C747.002 532.685 744.186 535.544 740.687 537.592C737.188 539.555 733.05 540.536 728.271 540.536ZM775.85 539V475H783.018L783.402 484.984C785.535 481.229 788.351 478.371 791.85 476.408C795.349 474.445 799.487 473.464 804.266 473.464C809.215 473.464 813.567 474.488 817.322 476.536C821.162 478.499 824.149 481.656 826.282 486.008C828.501 490.36 829.567 496.12 829.482 503.288V539H821.802V506.232C821.802 499.149 820.949 493.773 819.242 490.104C817.621 486.435 815.359 483.96 812.458 482.68C809.642 481.315 806.442 480.632 802.858 480.632C796.799 480.632 792.063 482.893 788.65 487.416C785.237 491.853 783.53 498.083 783.53 506.104V539H775.85ZM874.373 540.536C868.229 540.536 862.768 539.128 857.989 536.312C853.296 533.411 849.584 529.443 846.853 524.408C844.208 519.373 842.885 513.571 842.885 507C842.885 500.429 844.208 494.627 846.853 489.592C849.498 484.557 853.168 480.632 857.861 477.816C862.64 474.915 868.058 473.464 874.117 473.464C880.176 473.464 885.552 474.829 890.245 477.56C894.938 480.205 898.565 483.917 901.125 488.696L894.469 492.28C892.506 488.611 889.733 485.752 886.149 483.704C882.65 481.571 878.64 480.504 874.117 480.504C869.509 480.504 865.413 481.656 861.829 483.96C858.33 486.179 855.557 489.293 853.509 493.304C851.546 497.229 850.565 501.795 850.565 507C850.565 512.205 851.589 516.813 853.637 520.824C855.685 524.749 858.501 527.864 862.085 530.168C865.669 532.387 869.765 533.496 874.373 533.496C878.981 533.496 883.077 532.344 886.661 530.04C890.245 527.651 892.976 524.365 894.853 520.184L901.637 523.768C899.077 528.973 895.408 533.069 890.629 536.056C885.936 539.043 880.517 540.536 874.373 540.536ZM915.725 539V449.4H923.405V484.856C925.538 481.187 928.354 478.371 931.853 476.408C935.352 474.445 939.448 473.464 944.141 473.464C949.09 473.464 953.442 474.488 957.197 476.536C961.037 478.499 964.024 481.656 966.157 486.008C968.376 490.36 969.442 496.12 969.357 503.288V539H961.677V506.232C961.677 499.149 960.824 493.773 959.117 490.104C957.496 486.435 955.234 483.96 952.333 482.68C949.517 481.315 946.317 480.632 942.733 480.632C936.674 480.632 931.938 482.893 928.525 487.416C925.112 491.853 923.405 498.083 923.405 506.104V539H915.725ZM1014.25 540.536C1008.1 540.536 1002.64 539.128 997.864 536.312C993.171 533.411 989.459 529.443 986.728 524.408C984.083 519.373 982.76 513.571 982.76 507C982.76 500.429 984.083 494.627 986.728 489.592C989.373 484.557 993 480.632 997.608 477.816C1002.3 474.915 1007.63 473.464 1013.61 473.464C1019.67 473.464 1024.79 474.957 1028.97 477.944C1033.23 480.845 1036.48 484.899 1038.7 490.104C1040.91 495.224 1042.02 501.155 1042.02 507.896H990.312C990.739 516.003 993.085 522.317 997.352 526.84C1001.7 531.277 1007.34 533.496 1014.25 533.496C1019.2 533.496 1023.38 532.301 1026.79 529.912C1030.29 527.437 1033.02 524.28 1034.98 520.44L1041.38 524.408C1039.76 527.565 1037.63 530.381 1034.98 532.856C1032.42 535.245 1029.39 537.123 1025.9 538.488C1022.4 539.853 1018.51 540.536 1014.25 540.536ZM991.08 500.856H1033.7C1033.45 496.76 1032.47 493.219 1030.76 490.232C1029.05 487.16 1026.75 484.771 1023.85 483.064C1020.95 481.357 1017.53 480.504 1013.61 480.504C1009.77 480.504 1006.18 481.357 1002.86 483.064C999.528 484.771 996.797 487.16 994.664 490.232C992.616 493.304 991.421 496.845 991.08 500.856ZM1056.1 539V475H1063.78V486.264C1066.25 482.253 1069.54 479.352 1073.64 477.56C1077.73 475.683 1082 474.744 1086.44 474.744V481.784C1082.68 481.784 1079.05 482.467 1075.56 483.832C1072.14 485.112 1069.33 487.331 1067.11 490.488C1064.89 493.56 1063.78 497.784 1063.78 503.16V539H1056.1Z" fill="#3D2611"/>
</svg>
